<svg width="30" height="31" viewBox="0 0 30 31" fill="none" xmlns="http://www.w3.org/2000/svg">
<path d="M26.8502 0.960784C26.6087 0.346406 25.7425 0.346405 25.501 0.960783L24.8555 2.60371C24.7818 2.79128 24.6338 2.93976 24.4469 3.01374L22.8101 3.6617C22.198 3.90401 22.198 4.77351 22.8101 5.01581L24.4469 5.66378C24.6338 5.73775 24.7818 5.88623 24.8555 6.0738L25.501 7.71673C25.7425 8.33111 26.6087 8.33111 26.8502 7.71673L27.4957 6.0738C27.5694 5.88623 27.7174 5.73775 27.9043 5.66378L29.5411 5.01581C30.1532 4.77351 30.1532 3.90401 29.5411 3.6617L27.9043 3.01374C27.7174 2.93976 27.5694 2.79128 27.4957 2.60371L26.8502 0.960784Z" fill="#2B2E37"/>
<path d="M21.0491 9.69451C20.8077 9.08013 19.9414 9.08013 19.7 9.69451L19.4646 10.2935C19.3909 10.4811 19.243 10.6296 19.0561 10.7036L18.4593 10.9398C17.8472 11.1821 17.8472 12.0516 18.4593 12.2939L19.0561 12.5302C19.243 12.6041 19.3909 12.7526 19.4646 12.9402L19.7 13.5392C19.9414 14.1536 20.8077 14.1536 21.0491 13.5392L21.2845 12.9402C21.3582 12.7526 21.5061 12.6041 21.693 12.5302L22.2898 12.2939C22.902 12.0516 22.902 11.1821 22.2898 10.9398L21.693 10.7036C21.5061 10.6296 21.3582 10.4811 21.2845 10.2935L21.0491 9.69451Z" fill="#2B2E37"/>
<path d="M15 30.5C23.2843 30.5 30 23.7843 30 15.5C30 14.806 28.9598 14.6913 28.6009 15.2853C26.8934 18.1109 23.7923 20 20.25 20C14.8652 20 10.5 15.6348 10.5 10.25C10.5 6.70768 12.3891 3.60658 15.2147 1.89914C15.8087 1.5402 15.694 0.5 15 0.5C6.71573 0.5 0 7.21573 0 15.5C0 23.7843 6.71573 30.5 15 30.5Z" fill="#2B2E37"/>
</svg>
