<svg width="247" height="137" viewBox="0 0 247 137" fill="none" xmlns="http://www.w3.org/2000/svg">
<path d="M26.8036 16.5659V76.9137H16.183V16.5659H0V6.58563H42.9306V16.5659H26.8036Z" fill="#DCE2E4"/>
<path d="M50.5834 14.1221C50.5834 12.3313 51.2367 10.7829 52.5432 9.47711C53.8498 8.17129 55.4177 7.51837 57.2283 7.51837C59.0388 7.51837 60.6627 8.17129 61.9693 9.47711C63.2759 10.7456 63.9292 12.3126 63.9292 14.1594C63.9292 16.0062 63.2759 17.5919 61.9693 18.8977C60.7 20.2035 59.1322 20.8565 57.2843 20.8565C55.4364 20.8565 53.8498 20.2035 52.5432 18.8977C51.2367 17.5919 50.5834 16.0062 50.5834 14.1221ZM62.3799 32.5716V76.9324H52.1326V32.5716H62.3799Z" fill="#DCE2E4"/>
<path d="M109.921 34.4744V48.0923C107.588 45.2382 105.479 43.2794 103.631 42.2161C101.801 41.1155 99.6736 40.5745 97.2098 40.5745C93.346 40.5745 90.1542 41.9176 87.597 44.6225C85.0399 47.3275 83.7706 50.704 83.7706 54.7707C83.7706 58.8374 85.0025 62.3445 87.4664 65.0121C89.9489 67.6797 93.1407 69.0228 96.9858 69.0228C99.4496 69.0228 101.615 68.5005 103.5 67.4372C105.329 66.4112 107.457 64.3965 109.921 61.4304V74.955C105.759 77.119 101.596 78.1823 97.4337 78.1823C90.5649 78.1823 84.8346 75.9624 80.2055 71.5412C75.5952 67.0828 73.2806 61.5423 73.2806 54.9199C73.2806 48.2975 75.6138 42.7198 80.2988 38.168C84.9839 33.6163 90.7142 31.3404 97.5271 31.3404C101.895 31.3404 106.039 32.3851 109.921 34.4744Z" fill="#DCE2E4"/>
<path d="M132.525 3.05176e-05V46.9165L146.972 32.5711H160.728L141.447 51.2071L162.128 76.9319H148.82L134.149 58.2212L132.506 59.8629V76.9505H122.259V3.05176e-05H132.506H132.525Z" fill="#DCE2E4"/>
<path d="M168.755 32.5525H179.002V36.5073C180.887 34.5299 182.548 33.1868 184.023 32.4592C185.516 31.6944 187.271 31.3213 189.305 31.3213C192.012 31.3213 194.83 32.1981 197.779 33.9703L193.094 43.3535C191.153 41.9544 189.249 41.2642 187.401 41.2642C181.802 41.2642 179.021 45.4802 179.021 53.9307V76.9319H168.773V32.5712L168.755 32.5525Z" fill="#DCE2E4"/>
<path d="M139.879 118.066H111.246C111.489 121.349 112.553 123.96 114.438 125.901C116.323 127.822 118.75 128.773 121.699 128.773C123.995 128.773 125.899 128.232 127.392 127.132C128.866 126.031 130.546 124.016 132.432 121.069L140.215 125.415C139.02 127.468 137.732 129.221 136.407 130.676C135.082 132.131 133.626 133.344 132.096 134.276C130.565 135.209 128.904 135.918 127.131 136.347C125.357 136.776 123.435 137 121.344 137C115.39 137 110.593 135.079 106.99 131.254C103.388 127.393 101.578 122.3 101.578 115.92C101.578 109.54 103.332 104.504 106.823 100.586C110.35 96.7246 115.017 94.8032 120.84 94.8032C126.664 94.8032 131.368 96.6687 134.783 100.418C138.18 104.131 139.86 109.279 139.86 115.864L139.823 118.028L139.879 118.066ZM130.397 110.529C129.109 105.604 126.011 103.142 121.083 103.142C119.963 103.142 118.918 103.31 117.928 103.646C116.939 103.981 116.043 104.485 115.241 105.119C114.438 105.753 113.747 106.537 113.169 107.432C112.59 108.328 112.161 109.354 111.862 110.51H130.397V110.529Z" fill="#DCE2E4"/>
<path d="M160.206 104.541V135.862H150.985V104.541H147.047V95.9411H150.985V81.3159H160.206V95.9411H167.392V104.541H160.206Z" fill="#DCE2E4"/>
<path d="M210.789 118.066H182.156C182.399 121.349 183.463 123.96 185.348 125.901C187.233 127.822 189.66 128.773 192.609 128.773C194.905 128.773 196.809 128.232 198.302 127.132C199.776 126.031 201.456 124.016 203.342 121.069L211.125 125.415C209.93 127.468 208.643 129.221 207.317 130.676C205.992 132.131 204.536 133.344 203.006 134.276C201.475 135.209 199.814 135.918 198.041 136.347C196.267 136.776 194.345 137 192.254 137C186.3 137 181.503 135.079 177.901 131.254C174.298 127.393 172.488 122.3 172.488 115.92C172.488 109.54 174.242 104.504 177.733 100.586C181.26 96.7246 185.927 94.8032 191.75 94.8032C197.574 94.8032 202.278 96.6687 205.693 100.418C209.091 104.131 210.77 109.279 210.77 115.864L210.733 118.028L210.789 118.066ZM201.307 110.529C200.019 105.604 196.921 103.142 191.993 103.142C190.873 103.142 189.828 103.31 188.838 103.646C187.849 103.981 186.953 104.485 186.151 105.119C185.348 105.753 184.657 106.537 184.079 107.432C183.5 108.328 183.071 109.354 182.772 110.51H201.307V110.529Z" fill="#DCE2E4"/>
<path d="M220.868 95.9225H230.089V99.4855C231.788 97.7133 233.281 96.5008 234.606 95.8292C235.95 95.139 237.537 94.8032 239.366 94.8032C241.792 94.8032 244.35 95.5867 247 97.1723L242.782 105.623C241.027 104.373 239.329 103.739 237.649 103.739C232.609 103.739 230.108 107.544 230.108 115.137V135.843H220.887V95.9225H220.868Z" fill="#DCE2E4"/>
<path d="M82.2401 81.2972H73.6913L57.359 117.002L41.568 81.2972H32.9819L22.2866 135.843H28.0729H32.1793L38.9735 97.6014L55.9031 135.843H58.5163L75.9311 97.6574L82.0348 135.843H88.6983H91.8528L82.2401 81.2972Z" fill="#DCE2E4"/>
<path d="M220.346 42.4212H201.68V77.865H220.346V42.4212Z" fill="#0EB663"/>
</svg>
