<svg width="22" height="22" viewBox="0 0 22 22" fill="none" xmlns="http://www.w3.org/2000/svg">
<path d="M9.125 7.875C9.125 6.83947 9.96447 6 11 6C12.0355 6 12.875 6.83947 12.875 7.875C12.875 8.56245 12.505 9.16348 11.9534 9.48988C11.478 9.7711 11 10.1977 11 10.75V12" stroke="#0EB663" stroke-width="1.5" stroke-linecap="round"/>
<circle cx="11" cy="15" r="1" fill="#0EB663"/>
<path d="M21 11C21 15.714 21 18.0711 19.5355 19.5355C18.0711 21 15.714 21 11 21C6.28595 21 3.92893 21 2.46447 19.5355C1 18.0711 1 15.714 1 11C1 6.28595 1 3.92893 2.46447 2.46447C3.92893 1 6.28595 1 11 1C15.714 1 18.0711 1 19.5355 2.46447C20.5093 3.43821 20.8356 4.80655 20.9449 7" stroke="#0EB663" stroke-width="1.5" stroke-linecap="round"/>
</svg>
