<svg width="28" height="28" viewBox="0 0 28 28" fill="none" xmlns="http://www.w3.org/2000/svg">
<path fill-rule="evenodd" clip-rule="evenodd" d="M1.45682 0.0622122C0.886953 -0.138141 0.262566 0.161409 0.0622122 0.731276C-0.138141 1.30114 0.161409 1.92553 0.731276 2.12588L1.11221 2.25981C2.0858 2.60211 2.72565 2.82895 3.19646 3.05996C3.63867 3.27694 3.8336 3.45257 3.96202 3.64049C4.09365 3.83312 4.1953 4.09769 4.25266 4.62758C4.31268 5.18204 4.31416 5.90424 4.31416 6.98332L4.31417 10.7774C4.31417 15.0672 4.40638 16.4829 5.66989 17.8156C6.93339 19.1483 8.96697 19.1483 13.0341 19.1483H20.7675C23.044 19.1483 24.1822 19.1483 24.9868 18.4926C25.7914 17.8369 26.0212 16.7221 26.4807 14.4925L27.2095 10.9565C27.7158 8.42033 27.9689 7.15226 27.3215 6.31069C26.674 5.46911 24.4621 5.46911 22.0048 5.46911H6.49079C6.48103 5.07488 6.46253 4.71621 6.42746 4.39217C6.3491 3.66828 6.17932 3.00807 5.7681 2.4063C5.35367 1.79983 4.80264 1.41143 4.16006 1.09613C3.55909 0.801255 2.79547 0.532812 1.89636 0.216744L1.45682 0.0622122ZM11.9554 9.66142C11.8545 9.06584 11.2899 8.66483 10.6943 8.76572C10.0987 8.86662 9.69769 9.43122 9.79859 10.0268L10.5689 14.5737C10.6698 15.1692 11.2344 15.5703 11.8299 15.4694C12.4255 15.3685 12.8265 14.8039 12.7256 14.2083L11.9554 9.66142ZM19.851 8.76572C19.2554 8.66483 18.6908 9.06584 18.5899 9.66142L17.8196 14.2083C17.7187 14.8039 18.1197 15.3685 18.7153 15.4694C19.3109 15.5703 19.8755 15.1692 19.9764 14.5737L20.7467 10.0268C20.8476 9.43122 20.4465 8.86662 19.851 8.76572ZM7.96031 22.9691C9.16843 22.9691 10.1478 23.9485 10.1478 25.1566C10.1478 26.3647 9.16843 27.3441 7.96031 27.3441C6.75218 27.3441 5.77281 26.3647 5.77281 25.1566C5.77281 23.9485 6.75218 22.9691 7.96031 22.9691ZM21.0853 22.9692C22.2934 22.9692 23.2728 23.9486 23.2728 25.1567C23.2728 26.3648 22.2934 27.3442 21.0853 27.3442C19.8772 27.3442 18.8978 26.3648 18.8978 25.1567C18.8978 23.9486 19.8772 22.9692 21.0853 22.9692Z" fill="#0EB663"/>
</svg>
