<svg width="35" height="35" viewBox="0 0 35 35" fill="none" xmlns="http://www.w3.org/2000/svg">
<path d="M25.6395 17.5C25.6395 21.9953 21.9953 25.6395 17.5 25.6395C13.0047 25.6395 9.36047 21.9953 9.36047 17.5C9.36047 13.0047 13.0047 9.36047 17.5 9.36047C21.9953 9.36047 25.6395 13.0047 25.6395 17.5Z" fill="#0EB663"/>
<path fill-rule="evenodd" clip-rule="evenodd" d="M17.5 0C18.1743 0 18.7209 0.546629 18.7209 1.22093V4.47674C18.7209 5.15105 18.1743 5.69767 17.5 5.69767C16.8257 5.69767 16.2791 5.15105 16.2791 4.47674V1.22093C16.2791 0.546629 16.8257 0 17.5 0ZM3.93734 4.01456C4.39234 3.51691 5.16461 3.48234 5.66227 3.93734L9.2795 7.24457C9.77715 7.69957 9.81172 8.47185 9.35672 8.9695C8.90172 9.46715 8.12945 9.50172 7.63179 9.04672L4.01456 5.73949C3.51691 5.28449 3.48234 4.51221 3.93734 4.01456ZM31.0627 4.01456C31.5177 4.51221 31.4831 5.28449 30.9854 5.73949L27.3682 9.04672C26.8706 9.50172 26.0983 9.46715 25.6433 8.9695C25.1883 8.47185 25.2228 7.69957 25.7205 7.24457L29.3377 3.93734C29.8354 3.48234 30.6077 3.51691 31.0627 4.01456ZM0 17.5C0 16.8257 0.546629 16.2791 1.22093 16.2791H4.47674C5.15105 16.2791 5.69767 16.8257 5.69767 17.5C5.69767 18.1743 5.15105 18.7209 4.47674 18.7209H1.22093C0.546629 18.7209 0 18.1743 0 17.5ZM29.3023 17.5C29.3023 16.8257 29.849 16.2791 30.5233 16.2791H33.7791C34.4534 16.2791 35 16.8257 35 17.5C35 18.1743 34.4534 18.7209 33.7791 18.7209H30.5233C29.849 18.7209 29.3023 18.1743 29.3023 17.5ZM25.6811 25.6805C26.1579 25.2038 26.931 25.2038 27.4077 25.6806L31.025 29.2983C31.5017 29.7751 31.5017 30.5482 31.0249 31.025C30.548 31.5017 29.775 31.5017 29.2982 31.0249L25.681 27.4072C25.2042 26.9304 25.2042 26.1573 25.6811 25.6805ZM9.31922 25.6808C9.79603 26.1576 9.79603 26.9306 9.31922 27.4074L5.70165 31.025C5.22485 31.5018 4.4518 31.5018 3.975 31.025C3.49819 30.5482 3.49819 29.7751 3.975 29.2983L7.59257 25.6808C8.06937 25.204 8.84242 25.204 9.31922 25.6808ZM17.5 29.3023C18.1743 29.3023 18.7209 29.849 18.7209 30.5233V33.7791C18.7209 34.4534 18.1743 35 17.5 35C16.8257 35 16.2791 34.4534 16.2791 33.7791V30.5233C16.2791 29.849 16.8257 29.3023 17.5 29.3023Z" fill="#0EB663"/>
</svg>
