<svg width="29" height="30" viewBox="0 0 29 30" fill="none" xmlns="http://www.w3.org/2000/svg">
<path fill-rule="evenodd" clip-rule="evenodd" d="M16.9182 0.222018C16.3627 0 15.6585 0 14.25 0C12.8415 0 12.1373 0 11.5818 0.222018C10.8411 0.518042 10.2526 1.08584 9.94584 1.80051C9.80578 2.12675 9.75098 2.50615 9.72953 3.05957C9.69801 3.87287 9.26574 4.62568 8.53525 5.03261C7.80477 5.43953 6.91296 5.42433 6.16723 5.04402C5.65977 4.78523 5.29183 4.64132 4.92898 4.59523C4.13414 4.49426 3.33027 4.70209 2.69423 5.173C2.21721 5.52618 1.86509 6.11464 1.16085 7.29157C0.456621 8.46849 0.104504 9.05696 0.0260206 9.63215C-0.0786232 10.3991 0.136772 11.1747 0.62482 11.7884C0.847583 12.0685 1.16066 12.304 1.64656 12.5986C2.36087 13.0316 2.82048 13.7694 2.82044 14.5834C2.82039 15.3973 2.3608 16.1349 1.64655 16.5679C1.16057 16.8625 0.847457 17.098 0.624672 17.3782C0.136624 17.9919 -0.0787711 18.7675 0.0258726 19.5344C0.104356 20.1096 0.456473 20.6981 1.16071 21.875C1.86494 23.0519 2.21706 23.6404 2.69409 23.9936C3.33012 24.4645 4.13399 24.6723 4.92884 24.5713C5.29166 24.5252 5.65958 24.3814 6.167 24.1226C6.91278 23.7423 7.80465 23.7271 8.53518 24.134C9.26571 24.541 9.698 25.2938 9.72953 26.1072C9.75098 26.6606 9.80579 27.0399 9.94584 27.3662C10.2526 28.0808 10.8411 28.6486 11.5818 28.9447C12.1373 29.1667 12.8415 29.1667 14.25 29.1667C15.6585 29.1667 16.3627 29.1667 16.9182 28.9447C17.6589 28.6486 18.2474 28.0808 18.5542 27.3662C18.6942 27.0399 18.749 26.6605 18.7705 26.107C18.802 25.2938 19.2342 24.541 19.9647 24.134C20.6952 23.727 21.5871 23.7422 22.3329 24.1225C22.8403 24.3813 23.2082 24.5251 23.571 24.5712C24.3659 24.6722 25.1697 24.4644 25.8058 23.9935C26.2828 23.6403 26.6349 23.0518 27.3391 21.8749C28.0434 20.698 28.3955 20.1095 28.474 19.5343C28.5786 18.7674 28.3632 17.9918 27.8752 17.3781C27.6524 17.0979 27.3393 16.8624 26.8534 16.5678C26.1391 16.1348 25.6795 15.3971 25.6796 14.5832C25.6796 13.7694 26.1392 13.0318 26.8534 12.5988C27.3394 12.3042 27.6525 12.0687 27.8753 11.7885C28.3634 11.1748 28.5788 10.3992 28.4741 9.63225C28.3956 9.05706 28.0435 8.46859 27.3393 7.29167C26.6351 6.11474 26.2829 5.52628 25.8059 5.1731C25.1699 4.70219 24.366 4.49436 23.5712 4.59533C23.2083 4.64142 22.8404 4.78531 22.333 5.04408C21.5872 5.42441 20.6953 5.43961 19.9648 5.03265C19.2343 4.6257 18.802 3.87284 18.7705 3.05949C18.749 2.50611 18.6942 2.12673 18.5542 1.80051C18.2474 1.08584 17.6589 0.518042 16.9182 0.222018ZM14.25 18.9583C16.7542 18.9583 18.7843 16.9996 18.7843 14.5833C18.7843 12.1671 16.7542 10.2083 14.25 10.2083C11.7458 10.2083 9.71574 12.1671 9.71574 14.5833C9.71574 16.9996 11.7458 18.9583 14.25 18.9583Z" fill="#ECE8E4"/>
</svg>
