<svg width="24" height="24" viewBox="0 0 24 24" fill="none" xmlns="http://www.w3.org/2000/svg">
<path fill-rule="evenodd" clip-rule="evenodd" d="M12 24C6.34315 24 3.51472 24 1.75736 22.2426C0 20.4853 0 17.6569 0 12C0 6.34315 0 3.51472 1.75736 1.75736C3.51472 0 6.34315 0 12 0C17.6569 0 20.4853 0 22.2426 1.75736C24 3.51472 24 6.34315 24 12C24 17.6569 24 20.4853 22.2426 22.2426C20.4853 24 17.6569 24 12 24ZM12 6.9C11.2544 6.9 10.65 7.50442 10.65 8.25C10.65 8.74706 10.2471 9.15 9.75 9.15C9.25294 9.15 8.85 8.74706 8.85 8.25C8.85 6.5103 10.2603 5.1 12 5.1C13.7397 5.1 15.15 6.5103 15.15 8.25C15.15 9.103 14.8098 9.87838 14.2595 10.4448C14.1488 10.5587 14.0432 10.6642 13.9425 10.7649C13.6835 11.0237 13.4566 11.2504 13.2575 11.5062C12.9946 11.8439 12.9 12.0921 12.9 12.3V13.2C12.9 13.6971 12.4971 14.1 12 14.1C11.5029 14.1 11.1 13.6971 11.1 13.2V12.3C11.1 11.5138 11.466 10.8773 11.837 10.4007C12.1115 10.048 12.4565 9.70361 12.7365 9.42416C12.821 9.33986 12.8995 9.26146 12.9685 9.19053C13.2055 8.94652 13.35 8.61605 13.35 8.25C13.35 7.50442 12.7456 6.9 12 6.9ZM12 18C12.6627 18 13.2 17.4627 13.2 16.8C13.2 16.1373 12.6627 15.6 12 15.6C11.3373 15.6 10.8 16.1373 10.8 16.8C10.8 17.4627 11.3373 18 12 18Z" fill="#0EB663"/>
</svg>
