<svg width="93" height="55" viewBox="0 0 93 55" fill="none" xmlns="http://www.w3.org/2000/svg">
<g clip-path="url(#clip0_257_1193)">
<path d="M0 7.50004H7.39387V26.0811H11.8709V7.50004H19.2648V3.37842H0V7.50004Z" fill="#DCE2E4"/>
<path d="M35.5449 21.8919H26.93V16.4865H34.3917V12.2973H26.93V7.50004H35.5449V3.37842H22.453V26.0811H35.5449V21.8919Z" fill="#DCE2E4"/>
<path d="M49.5865 22.365C45.5164 22.365 42.8031 19.1218 42.8031 14.7299C42.8031 10.338 45.5164 7.16233 49.5186 7.16233C52.5711 7.16233 54.267 8.51369 55.081 10.7434H59.965C58.744 6.14882 55.3523 2.97314 49.5186 2.97314C42.8709 2.97314 38.1226 7.90558 38.1226 14.7299C38.1226 21.5542 42.8709 26.5542 49.5186 26.5542C55.3523 26.5542 58.8118 23.5137 60.0328 18.5813H55.2845C54.6061 20.7434 52.7746 22.365 49.5865 22.365Z" fill="#DCE2E4"/>
<path d="M67.698 16.4189H72.2428V16.4865H77.466V26.0811H81.9431V16.4189H87.0984C87.7089 17.1622 88.5907 17.7027 89.6761 17.7027C91.5076 17.7027 92.9999 16.1486 92.9999 14.3243C92.9999 12.4324 91.5076 10.9459 89.6761 10.9459C88.5907 10.9459 87.7089 11.4865 87.0984 12.2297H81.9431V0H77.466V12.2297H72.2428H67.698V3.37838H63.2209V26.0811H67.698V16.4189Z" fill="#DCE2E4"/>
<path d="M0 36.0137H7.39387V54.5948H11.8709V36.0137H19.2648V31.8921H0V36.0137Z" fill="#DCE2E4"/>
<path d="M25.2341 30.5405C23.674 30.5405 22.3851 31.7567 22.3851 33.3108C22.3851 34.8649 23.6061 36.0811 25.2341 36.0811C26.7943 36.0811 28.0832 34.9324 28.0832 33.3108C28.0153 31.7567 26.7265 30.5405 25.2341 30.5405Z" fill="#DCE2E4"/>
<path d="M27.2692 38.1758H23.0635V54.5947H27.2692V38.1758Z" fill="#DCE2E4"/>
<path d="M44.3633 46.4867L43.8884 47.838L43.3458 46.4867L36.8337 31.8921H31.7462V54.5948H36.1554V40.2029L36.8337 42.2299L41.9891 54.5948H45.7878L50.9432 42.2299L51.6215 40.2029V54.5948H56.0985V31.8921H50.9432L44.3633 46.4867Z" fill="#DCE2E4"/>
<path d="M60.7112 54.5948H73.8031V50.4056H65.1882V45.0002H72.6499V40.811H65.1882V36.0137H73.8031V31.8921H60.7112V54.5948Z" fill="#DCE2E4"/>
<path d="M85.4705 41.0809C82.6893 40.135 81.4683 39.5269 81.4683 37.8377C81.4683 36.2836 82.4179 35.4052 84.0459 35.4052C85.6061 35.4052 86.7593 36.4188 86.8271 38.2431H91.372C91.1685 33.7161 88.4551 31.4863 84.1816 31.4863C79.7046 31.4863 76.9912 34.3242 76.9912 38.2431C76.9912 42.0269 79.4333 43.8512 83.5033 45.2025C86.3523 46.1485 87.5055 47.0269 87.5055 48.5134C87.5055 49.9998 86.4201 51.0809 84.5208 51.0809C82.2144 51.0809 81.0613 49.8647 80.9256 47.635H76.3807C76.5164 51.9593 79.2298 54.9998 84.3851 54.9998C88.6586 54.9998 91.9825 52.4998 91.9825 48.1079C92.0503 44.7296 90.3545 42.7025 85.4705 41.0809Z" fill="#DCE2E4"/>
</g>
<defs>
<clipPath id="clip0_257_1193">
<rect width="93" height="55" fill="white"/>
</clipPath>
</defs>
</svg>
