<svg width="30" height="30" viewBox="0 0 30 30" fill="none" xmlns="http://www.w3.org/2000/svg">
<path fill-rule="evenodd" clip-rule="evenodd" d="M30 14.5833C30 22.6375 23.2843 29.1667 15 29.1667C6.71573 29.1667 0 22.6375 0 14.5833C0 6.52918 6.71573 0 15 0C23.2843 0 30 6.52918 30 14.5833ZM19.5 10.2083C19.5 12.6246 17.4853 14.5833 15 14.5833C12.5147 14.5833 10.5 12.6246 10.5 10.2083C10.5 7.79209 12.5147 5.83333 15 5.83333C17.4853 5.83333 19.5 7.79209 19.5 10.2083ZM15 26.9792C17.676 26.9792 20.1596 26.1776 22.2104 24.808C23.1162 24.2031 23.5033 23.0508 22.9766 22.113C21.8849 20.1691 19.6353 18.9583 14.9999 18.9583C10.3645 18.9583 8.11495 20.1691 7.02321 22.1129C6.49657 23.0506 6.88365 24.203 7.78943 24.8079C9.84028 26.1776 12.3238 26.9792 15 26.9792Z" fill="#0EB663"/>
</svg>
