<svg width="49" height="49" viewBox="0 0 49 49" fill="none" xmlns="http://www.w3.org/2000/svg">
<ellipse cx="18.3771" cy="12.2497" rx="8.16667" ry="8.16667" fill="#0EB663"/>
<ellipse cx="18.3771" cy="34.7106" rx="14.2917" ry="8.16667" fill="#0EB663"/>
<path d="M42.8741 34.7097C42.8741 38.0925 38.7182 40.8347 33.6441 40.8347C35.139 39.2007 36.1669 37.1496 36.1669 34.7126C36.1669 32.2727 35.1366 30.2197 33.6389 28.5848C38.713 28.5848 42.8741 31.327 42.8741 34.7097Z" fill="#0EB663"/>
<path d="M36.7491 12.252C36.7491 15.6347 34.0069 18.377 30.6241 18.377C29.8865 18.377 29.1793 18.2466 28.5244 18.0076C29.4903 16.3087 30.0419 14.3436 30.0419 12.2497C30.0419 10.1573 29.4911 8.19354 28.5266 6.49554C29.1809 6.25705 29.8873 6.12695 30.6241 6.12695C34.0069 6.12695 36.7491 8.86921 36.7491 12.252Z" fill="#0EB663"/>
</svg>
